#!Matlab matrix to amc conversion
:FULLY-SPECIFIED
:DEGREES
16
root 9.192140 16.357400 -29.724600 1.248594 1.634016 -0.030744
lowerback 13.919220 0.394282 -2.734020
upperback -0.064976 0.178758 1.143432
thorax -7.836456 0.215169 2.795039
lowerneck -10.717868 0.003043 -2.316544
upperneck 31.170228 0.994449 -1.673192
head 12.227066 -0.025353 -0.129698
rclavicle -0.000000 0.000000
rhumerus -35.955714 -12.133688 -75.435097
rradius 27.990985
rwrist 1.064409
rhand -13.224022 10.620586
rfingers 7.125020
rthumb 12.868493 -18.906238
lclavicle -0.000000 0.000000
lhumerus -40.128324 6.793726 82.592477
lradius 37.277599
lwrist 5.748085
lhand -11.986615 47.035353
lfingers 7.125020
lthumb 14.070859 76.507163
rfemur -12.992293 0.594784 19.303642
rtibia 60.776407
rfoot 0.152451 -11.924058
rtoes 8.448570
lfemur -9.093653 -3.939572 -26.724122
ltibia 22.707973
lfoot -7.161190 2.233558
ltoes -7.051742
17
root 9.191770 16.245600 -29.440800 1.423783 1.634016 -0.028204
lowerback 14.034671 0.138008 -3.486417
upperback 0.217887 -0.340008 1.105631
thorax -7.540676 -0.008518 3.362846
lowerneck -10.946041 0.148017 -2.117841
upperneck 31.021063 1.222492 -1.881046
head 12.228847 0.074490 -0.208032
rclavicle -0.000000 0.000000
rhumerus -36.029859 -12.202190 -75.711050
rradius 28.117776
rwrist 1.314451
rhand -12.931277 10.291578
rfingers 7.125020
rthumb 13.148074 -19.217898
lclavicle -0.000000 0.000000
lhumerus -39.074126 6.209672 82.629912
lradius 38.424419
lwrist 6.142700
lhand -11.948654 47.132426
lfingers 7.125020
lthumb 14.101004 76.592264
rfemur -16.392424 -0.383932 18.345650
rtibia 59.997285
rfoot -2.962275 -12.422330
rtoes 7.997810
lfemur -7.244557 -4.095359 -27.827882
ltibia 22.837067
lfoot -8.692145 2.361227
ltoes -7.752858
18
root 9.208550 16.156600 -29.151500 1.587523 1.634016 -0.040412
lowerback 14.142685 -0.122699 -4.239152
upperback 0.500530 -0.862971 1.063418
thorax -7.235537 -0.235612 3.929547
lowerneck -11.215749 0.293125 -1.906143
upperneck 30.870869 1.449662 -2.080921
head 12.233718 0.174529 -0.285265
rclavicle -0.000000 0.000000
rhumerus -36.092361 -12.250658 -76.008333
rradius 28.320565
rwrist 1.506849
rhand -12.634071 9.961230
rfingers 7.125020
rthumb 13.431723 -19.529965
lclavicle -0.000000 0.000000
lhumerus -37.965037 5.614007 82.663065
lradius 39.625060
lwrist 6.555350
lhand -11.912589 47.227583
lfingers 7.125020
lthumb 14.129245 76.675507
rfemur -19.771488 -1.300956 17.393977
rtibia 58.399517
rfoot -6.113327 -12.866990
rtoes 7.481759
lfemur -5.416125 -4.259479 -28.930559
ltibia 22.979300
lfoot -10.281777 2.500301
ltoes -8.427710
19
root 9.222000 16.080900 -28.855000 1.764951 1.634016 -0.095602
lowerback 14.244448 -0.408603 -5.050127
upperback 0.788447 -1.423666 1.015056
thorax -6.913656 -0.481529 4.514237
lowerneck -11.547086 0.439876 -1.667789
upperneck 30.717495 1.678566 -2.280758
head 12.241762 0.275823 -0.367878
rclavicle -0.000000 0.000000
rhumerus -36.146455 -12.281802 -76.339544
rradius 28.650074
rwrist 1.659274
rhand -12.325657 9.553019
rfingers 7.125020
rthumb 13.725877 -19.917623
lclavicle -0.000000 0.000000
lhumerus -36.729873 4.985260 82.693086
lradius 40.970157
lwrist 7.000633
lhand -11.877226 47.322630
lfingers 7.125020
lthumb 14.156512 76.758455
rfemur -23.321158 -2.240622 16.385892
rtibia 55.810182
rfoot -9.758926 -13.318669
rtoes 6.826096
lfemur -3.535274 -4.444298 -30.079822
ltibia 23.157759
lfoot -12.043025 2.653548
ltoes -9.186455
20
root 9.232280 16.013400 -28.551200 1.620910 1.634016 0.269978
lowerback 14.591800 -0.351067 -5.420312
upperback 0.155342 -1.436788 1.017809
thorax -7.773459 -0.420389 4.712296
lowerneck -10.687931 0.365308 -1.738919
upperneck 30.554777 1.516307 -2.155746
head 11.937583 0.211184 -0.326977
rclavicle -0.000000 0.000000
rhumerus -37.719158 -11.708044 -76.539452
rradius 29.242220
rwrist 1.414295
rhand -12.260608 9.540870
rfingers 7.125020
rthumb 13.790041 -19.922289
lclavicle -0.000000 0.000000
lhumerus -36.998698 4.004741 82.653600
lradius 42.370765
lwrist 7.400756
lhand -12.243461 47.278878
lfingers 7.125020
lthumb 13.811366 76.746899
rfemur -24.478303 -0.304708 16.005531
rtibia 46.107973
rfoot -11.860749 -13.781882
rtoes 4.354529
lfemur -0.805412 -4.319558 -30.311642
ltibia 20.960232
lfoot -12.418672 3.068284
ltoes -11.231185
21
root 9.239730 15.970900 -28.241000 1.553577 1.634016 0.407362
lowerback 14.940820 -0.290409 -5.767044
upperback -0.467437 -1.447294 1.010877
thorax -8.623002 -0.358416 4.907079
lowerneck -9.856700 0.291437 -1.823709
upperneck 30.395886 1.357525 -2.038982
head 11.635983 0.147163 -0.287847
rclavicle -0.000000 0.000000
rhumerus -39.254057 -11.171951 -76.661328
rradius 29.792267
rwrist 1.173806
rhand -12.196552 9.580194
rfingers 7.125020
rthumb 13.853021 -19.874824
lclavicle -0.000000 0.000000
lhumerus -37.308555 3.055366 82.628310
lradius 43.656141
lwrist 7.785928
lhand -12.596199 47.233434
lfingers 7.125020
lthumb 13.478977 76.732504
rfemur -25.586289 1.183176 15.636429
rtibia 37.281618
rfoot -13.478448 -14.162237
rtoes 2.534865
lfemur 1.819190 -4.205686 -30.558315
ltibia 19.128247
lfoot -12.739082 3.477088
ltoes -12.780000
22
root 9.241850 15.946000 -27.925100 1.383193 1.634016 -0.233625
lowerback 14.264724 -0.501640 -5.535449
upperback 0.109308 -1.593006 1.088032
thorax -7.587666 -0.508517 4.820172
lowerneck -10.993372 0.339039 -1.659901
upperneck 30.075566 1.440207 -2.116277
head 11.770327 0.189917 -0.330707
rclavicle -0.000000 0.000000
rhumerus -37.756935 -11.716651 -76.970380
rradius 28.750393
rwrist 1.914344
rhand -12.254565 9.765890
rfingers 7.125020
rthumb 13.802735 -19.691949
lclavicle -0.000000 0.000000
lhumerus -35.862937 3.387444 82.303261
lradius 43.930697
lwrist 7.949575
lhand -12.808920 47.214672
lfingers 7.125020
lthumb 13.272683 76.726422
rfemur -25.057791 3.080846 15.649343
rtibia 31.243276
rfoot -13.672204 -15.308575
rtoes 3.523482
lfemur 4.319574 -4.317258 -30.099336
ltibia 18.490119
lfoot -12.419409 3.393986
ltoes -13.712831
23
root 9.242890 15.925900 -27.604900 1.419923 1.634016 0.308750
lowerback 14.632841 -0.427703 -5.849890
upperback -0.532528 -1.593463 1.075458
thorax -8.487867 -0.437296 5.008702
lowerneck -10.010023 0.265398 -1.778432
upperneck 29.924254 1.285130 -2.009795
head 11.466654 0.125939 -0.291050
rclavicle -0.000000 0.000000
rhumerus -39.367104 -11.158863 -76.978703
rradius 29.341106
rwrist 1.617292
rhand -12.190417 9.765893
rfingers 7.125020
rthumb 13.865509 -19.694540
lclavicle -0.000000 0.000000
lhumerus -36.398441 2.472730 82.308837
lradius 45.022506
lwrist 8.309310
lhand -13.126447 47.145376
lfingers 7.125020
lthumb 12.974227 76.686028
rfemur -26.086249 3.754756 15.410120
rtibia 28.611395
rfoot -14.689085 -15.419694
rtoes 1.953727
lfemur 6.653270 -4.213559 -30.365242
ltibia 17.139283
lfoot -12.721623 3.801097
ltoes -14.651810
24
root 9.243090 15.943100 -27.273700 1.296077 1.634016 -0.257086
lowerback 13.969950 -0.632891 -5.584124
upperback 0.025583 -1.734247 1.153037
thorax -7.489734 -0.582058 4.916581
lowerneck -11.069695 0.312883 -1.635485
upperneck 29.606044 1.370267 -2.097415
head 11.596855 0.168481 -0.333687
rclavicle -0.000000 0.000000
rhumerus -37.936035 -11.688890 -77.195952
rradius 28.308895
rwrist 2.337554
rhand -12.248254 9.948807
rfingers 7.125020
rthumb 13.815237 -19.523969
lclavicle -0.000000 0.000000
lhumerus -35.174507 2.822066 82.002434
lradius 45.209299
lwrist 8.451633
lhand -13.319299 47.098053
lfingers 7.125020
lthumb 12.787261 76.649098
rfemur -25.521686 5.006029 15.513742
rtibia 27.318939
rfoot -14.449838 -16.384176
rtoes 3.026459
lfemur 8.850146 -4.337898 -29.913768
ltibia 16.775434
lfoot -12.366397 3.721082
ltoes -15.441894
25
root 9.241190 15.944900 -26.946700 1.359148 1.634016 0.360965
lowerback 14.348231 -0.558509 -5.879199
upperback -0.640215 -1.735114 1.149384
thorax -8.431684 -0.507997 5.106229
lowerneck -9.958454 0.238692 -1.782879
upperneck 29.452270 1.216840 -1.999457
head 11.286586 0.103951 -0.294027
rclavicle -0.000000 0.000000
rhumerus -39.650938 -11.103637 -77.144024
rradius 28.881881
rwrist 2.049365
rhand -12.183776 9.993675
rfingers 7.125020
rthumb 13.878285 -19.485957
lclavicle -0.000000 0.000000
lhumerus -35.820561 1.916609 82.022633
lradius 46.249584
lwrist 8.802895
lhand -13.631284 46.998323
lfingers 7.125020
lthumb 12.494495 76.578812
rfemur -26.522489 5.563457 15.321075
rtibia 25.648428
rfoot -15.244985 -16.496482
rtoes 1.454199
lfemur 11.161523 -4.246019 -30.170042
ltibia 15.389539
lfoot -12.644704 4.137262
ltoes -16.545238
